<?xml version="1.0" standalone="no"?>
<!DOCTYPE svg PUBLIC "-//W3C//DTD SVG 20010904//EN"
 "http://www.w3.org/TR/2001/REC-SVG-20010904/DTD/svg10.dtd">
<svg version="1.0" xmlns="http://www.w3.org/2000/svg"
 width="700.000000pt" height="700.000000pt" viewBox="0 0 700.000000 700.000000"
 preserveAspectRatio="xMidYMid meet">
<metadata>
Created by potrace 1.14, written by Peter Selinger 2001-2017
</metadata>
<g transform="translate(0.000000,700.000000) scale(0.100000,-0.100000)"
fill="#000000" stroke="none">
<path d="M0 3500 l0 -3500 3500 0 3500 0 0 3500 0 3500 -3500 0 -3500 0 0
-3500z m3902 1810 c287 -63 510 -187 696 -386 167 -178 274 -382 327 -624 26
-118 31 -372 10 -504 -87 -559 -458 -1027 -909 -1149 -111 -29 -316 -29 -427
1 -251 68 -455 255 -536 491 -23 66 -26 92 -27 206 0 158 21 250 93 400 66
139 139 225 352 416 264 237 364 370 437 582 77 225 49 409 -85 542 -25 25
-39 45 -31 45 7 0 52 -9 100 -20z m-505 -68 c266 -84 337 -324 175 -590 -46
-77 -135 -177 -195 -219 l-45 -33 14 47 c50 166 -39 305 -203 320 -173 15
-441 -124 -645 -335 -256 -265 -404 -622 -440 -1064 -38 -455 120 -1000 397
-1377 25 -34 42 -61 39 -61 -4 0 -43 26 -88 58 -106 75 -326 294 -409 407
-239 325 -357 693 -357 1108 1 530 209 996 600 1344 247 220 545 369 825 413
92 14 260 5 332 -18z m1878 -1207 c142 -469 100 -944 -122 -1385 -88 -175
-175 -299 -308 -438 -167 -176 -322 -290 -530 -392 -224 -110 -406 -158 -641
-167 -643 -25 -1062 321 -1196 988 -30 150 -32 426 -4 564 19 97 65 249 96
317 l20 43 0 -90 c1 -233 70 -476 187 -652 52 -79 172 -204 250 -259 190 -136
423 -209 703 -221 237 -10 408 25 606 122 166 81 293 179 421 325 304 345 492
859 470 1285 -3 65 -2 104 3 95 5 -9 25 -70 45 -135z"/>
</g>
</svg>
