<svg xmlns="http://www.w3.org/2000/svg" xmlns:xlink="http://www.w3.org/1999/xlink" width="289.157" height="57.051" viewBox="0 0 289.157 57.051"><defs><clipPath id="a"><path d="M158.215,329.651a29.408,29.408,0,0,0-.118,26.021,28.821,28.821,0,0,0,10.538,11.6,33.606,33.606,0,0,1-6.738-15.6c-1.474-9.922,1.808-21.736,10.906-26.873,2.019-1.139,4.885-2.419,7.175-1.318,2.1,1.011,2.232,3.406,1.357,5.325a12.848,12.848,0,0,0,4.471-5.183c2.024-4.445-.586-7.832-5.323-8.229-.376-.032-.758-.047-1.143-.047-7.5,0-16.681,5.865-21.124,14.311" transform="translate(-155.121 -315.34)" fill="#1a1311"/></clipPath><clipPath id="b"><path d="M233.333,336.8c-1.341,8.267-7.473,19.407-18.391,21.442-.628.116-12.221,2.018-18.667-6.353a18.48,18.48,0,0,1-3.481-12.57,23.929,23.929,0,0,0-2.039,13.194c.844,6.124,3.736,12.135,9.541,14.9,5.668,2.7,12.6,2.07,18.258-.306l.033-.015a29,29,0,0,0,11.549-9.357c.042-.057.082-.113.12-.165a28.963,28.963,0,0,0,4.626-10.077c.011-.046.022-.093.033-.138a29.249,29.249,0,0,0,.593-9.844c0-.037-.008-.073-.012-.109a29.052,29.052,0,0,0-2.02-7.789l-.031-.077a25.448,25.448,0,0,1-.114,7.261m-20.858-23.343c3.207,3.768.86,9.438-1.793,12.817-2.486,3.162-6.193,5.269-8.455,8.563-2.458,3.581-3.535,8.682-1.608,12.735a12.029,12.029,0,0,0,9.222,6.561A13.845,13.845,0,0,0,217.407,353c7.988-3.7,12.687-13.794,11.844-22.336A20.24,20.24,0,0,0,216.488,313.5c-.2-.081-.406-.157-.606-.229a28.637,28.637,0,0,0-4.459-1.09c-.152-.021-.3-.039-.44-.055a7.669,7.669,0,0,1,1.492,1.327" transform="translate(-190.542 -312.129)" fill="#1a1311"/></clipPath></defs><g transform="translate(-155.121 -312.129)"><g transform="translate(155.121 313.271)"><path d="M158.215,329.651a29.408,29.408,0,0,0-.118,26.021,28.821,28.821,0,0,0,10.538,11.6,33.606,33.606,0,0,1-6.738-15.6c-1.474-9.922,1.808-21.736,10.906-26.873,2.019-1.139,4.885-2.419,7.175-1.318,2.1,1.011,2.232,3.406,1.357,5.325a12.848,12.848,0,0,0,4.471-5.183c2.024-4.445-.586-7.832-5.323-8.229-.376-.032-.758-.047-1.143-.047-7.5,0-16.681,5.865-21.124,14.311" transform="translate(-155.121 -315.34)" fill="#1a1311"/><g transform="translate(0 0)" clip-path="url(#a)"><g transform="translate(-366.146 -521.352)"><rect width="784.891" height="591.948" transform="translate(0 0)" fill="#1a1311"/></g></g></g><g transform="translate(167.713 312.129)"><path d="M233.333,336.8c-1.341,8.267-7.473,19.407-18.391,21.442-.628.116-12.221,2.018-18.667-6.353a18.48,18.48,0,0,1-3.481-12.57,23.929,23.929,0,0,0-2.039,13.194c.844,6.124,3.736,12.135,9.541,14.9,5.668,2.7,12.6,2.07,18.258-.306l.033-.015a29,29,0,0,0,11.549-9.357c.042-.057.082-.113.12-.165a28.963,28.963,0,0,0,4.626-10.077c.011-.046.022-.093.033-.138a29.249,29.249,0,0,0,.593-9.844c0-.037-.008-.073-.012-.109a29.052,29.052,0,0,0-2.02-7.789l-.031-.077a25.448,25.448,0,0,1-.114,7.261m-20.858-23.343c3.207,3.768.86,9.438-1.793,12.817-2.486,3.162-6.193,5.269-8.455,8.563-2.458,3.581-3.535,8.682-1.608,12.735a12.029,12.029,0,0,0,9.222,6.561A13.845,13.845,0,0,0,217.407,353c7.988-3.7,12.687-13.794,11.844-22.336A20.24,20.24,0,0,0,216.488,313.5c-.2-.081-.406-.157-.606-.229a28.637,28.637,0,0,0-4.459-1.09c-.152-.021-.3-.039-.44-.055a7.669,7.669,0,0,1,1.492,1.327" transform="translate(-190.542 -312.129)" fill="#1a1311"/><g transform="translate(0 0)" clip-path="url(#b)"><g transform="translate(-378.738 -520.21)"><rect width="784.891" height="591.948" fill="#1a1311"/></g></g></g><g transform="translate(228.607 323.566)"><path d="M386.121,389l-6.77-10.631a8.688,8.688,0,0,1-.955.039h-4.262V389h-3.861V360.21h7.685a12.724,12.724,0,0,1,5.257,1.035,8.267,8.267,0,0,1,3.624,3.045,8.655,8.655,0,0,1,1.312,4.839,10.347,10.347,0,0,1-1.172,4.9,7.647,7.647,0,0,1-3.605,3.385L390.621,389ZM382.8,373.032a5.646,5.646,0,0,0,1.374-3.743,5.862,5.862,0,0,0-.578-2.507,4.926,4.926,0,0,0-1.831-2.051,5.705,5.705,0,0,0-3.166-.817h-4.461v10.751h4.183q3.107,0,4.478-1.632" transform="translate(-370.758 -359.015)" fill="#1a1311"/><path d="M458.345,379.958H447.274l-3.065,7.566h-3.821L452.97,357.54h.239l12.582,29.984h-4.46Zm-1.315-3.344-4.1-10.513-4.261,10.513Z" transform="translate(-410.873 -357.54)" fill="#1a1311"/><path d="M530.78,373.232l.479-.756,11.786-12.265h4.976l-11.9,12.343L548.7,389h-4.9l-10.512-13.977-2.429,2.35L530.9,389h-3.941V360.211H530.9V371.8Z" transform="translate(-463.443 -359.016)" fill="#1a1311"/><path d="M609.234,382.251a6.727,6.727,0,0,0,2.49,2.429,6.919,6.919,0,0,0,3.484.9,7.421,7.421,0,0,0,3.6-.876,6.47,6.47,0,0,0,2.529-2.43,6.7,6.7,0,0,0,.915-3.464V360.211h3.783v18.714a10.3,10.3,0,0,1-1.434,5.436,9.765,9.765,0,0,1-3.9,3.662,12.213,12.213,0,0,1-10.948,0,9.638,9.638,0,0,1-3.883-3.662,10.413,10.413,0,0,1-1.414-5.436V360.211h3.863v18.595a6.58,6.58,0,0,0,.915,3.445" transform="translate(-510.942 -359.016)" fill="#1a1311"/><path d="M708.14,390.42l-6.729-17.2L694.045,390.5l-11.468-30.023h4.5l7.445,20.945,4.977-13.059-3.066-7.886h3.823l8,20.507,7.087-20.507h4.142Z" transform="translate(-559.063 -359.163)" fill="#1a1311"/><path d="M814.381,360.211v3.7H799.529v8.76h13.26v3.7h-13.26v8.878H814.94V389H795.667V360.211Z" transform="translate(-626.153 -359.016)" fill="#1a1311"/><path d="M888.285,376.794a6.355,6.355,0,0,1,1.434,4.122,7.488,7.488,0,0,1-1.334,4.559,7.816,7.816,0,0,1-3.505,2.668,12.823,12.823,0,0,1-4.757.857h-8.561V360.21h7.445a11.274,11.274,0,0,1,6.849,1.812,6.346,6.346,0,0,1,2.429,5.435,7.544,7.544,0,0,1-1.016,3.962,6.973,6.973,0,0,1-2.886,2.648,9.137,9.137,0,0,1,3.9,2.727m-12.861-4H879.8a4.272,4.272,0,0,0,3.365-1.274,4.728,4.728,0,0,0,1.134-3.265,3.913,3.913,0,0,0-1.354-3.265,5.934,5.934,0,0,0-3.781-1.076h-3.744Zm8.681,11.487a3.794,3.794,0,0,0,1.632-3.325,3.633,3.633,0,0,0-1.773-3.344,8.1,8.1,0,0,0-4.281-1.075h-4.26v8.879h4.54a7.087,7.087,0,0,0,4.141-1.136" transform="translate(-674.048 -359.015)" fill="#1a1311"/></g></g></svg>