<svg xmlns="http://www.w3.org/2000/svg" xmlns:xlink="http://www.w3.org/1999/xlink" width="234.711" height="231.934" viewBox="0 0 234.711 231.934"><defs><clipPath id="a"><path d="M167.7,373.52c-16.847,32.026-16.532,73.578-.481,105.784a117.167,117.167,0,0,0,42.839,47.142,136.619,136.619,0,0,1-27.393-63.432c-5.992-40.335,7.35-88.365,44.336-109.249,8.207-4.63,19.859-9.835,29.169-5.357,8.549,4.11,9.073,13.845,5.515,21.649a52.233,52.233,0,0,0,18.178-21.071c8.229-18.072-2.382-31.838-21.641-33.454-1.528-.132-3.081-.192-4.648-.192-30.478,0-67.814,23.842-85.875,58.18" transform="translate(-155.121 -315.34)" fill="#fff"/></clipPath><clipPath id="b"><path d="M364.5,412.422c-5.45,33.607-30.381,78.9-74.766,87.17-2.552.472-49.684,8.2-75.89-25.829-15.684-20.372-14.728-43.849-14.152-51.1-4.324,9.4-11.673,29.087-8.29,53.637,3.432,24.9,15.188,49.334,38.79,60.584,23.041,10.978,51.211,8.417,74.227-1.243.049-.022.092-.039.136-.061a117.893,117.893,0,0,0,46.952-38.038c.172-.231.334-.46.487-.669A117.748,117.748,0,0,0,370.806,455.9c.043-.188.091-.377.136-.561a118.913,118.913,0,0,0,2.412-40.02c-.019-.149-.032-.3-.049-.442a118.114,118.114,0,0,0-8.212-31.663c-.043-.11-.082-.207-.126-.315a103.454,103.454,0,0,1-.464,29.519m-84.794-94.9c13.036,15.319,3.5,38.369-7.291,52.1-10.108,12.855-25.177,21.421-34.375,34.811-9.992,14.558-14.37,35.3-6.538,51.772,6.946,14.61,21.728,24.608,37.489,26.674a56.286,56.286,0,0,0,30.763-4.606c32.473-15.044,51.579-56.079,48.152-90.806-3.117-31.564-22.213-57.984-51.886-69.758-.831-.328-1.65-.639-2.464-.932a116.408,116.408,0,0,0-18.126-4.43c-.617-.084-1.217-.158-1.789-.224a31.184,31.184,0,0,1,6.066,5.393" transform="translate(-190.542 -312.129)" fill="#fff"/></clipPath></defs><g transform="translate(0)"><g transform="translate(0 4.641)"><path d="M167.7,373.52c-16.847,32.026-16.532,73.578-.481,105.784a117.167,117.167,0,0,0,42.839,47.142,136.619,136.619,0,0,1-27.393-63.432c-5.992-40.335,7.35-88.365,44.336-109.249,8.207-4.63,19.859-9.835,29.169-5.357,8.549,4.11,9.073,13.845,5.515,21.649a52.233,52.233,0,0,0,18.178-21.071c8.229-18.072-2.382-31.838-21.641-33.454-1.528-.132-3.081-.192-4.648-.192-30.478,0-67.814,23.842-85.875,58.18" transform="translate(-155.121 -315.34)" fill="#fff"/><g transform="translate(0 0)" clip-path="url(#a)"><g transform="translate(-1488.522 -2119.491)"><rect width="3190.874" height="2406.491" transform="translate(0 0)" fill="#fff"/></g></g></g><g transform="translate(51.191 0)"><path d="M364.5,412.422c-5.45,33.607-30.381,78.9-74.766,87.17-2.552.472-49.684,8.2-75.89-25.829-15.684-20.372-14.728-43.849-14.152-51.1-4.324,9.4-11.673,29.087-8.29,53.637,3.432,24.9,15.188,49.334,38.79,60.584,23.041,10.978,51.211,8.417,74.227-1.243.049-.022.092-.039.136-.061a117.893,117.893,0,0,0,46.952-38.038c.172-.231.334-.46.487-.669A117.748,117.748,0,0,0,370.806,455.9c.043-.188.091-.377.136-.561a118.913,118.913,0,0,0,2.412-40.02c-.019-.149-.032-.3-.049-.442a118.114,118.114,0,0,0-8.212-31.663c-.043-.11-.082-.207-.126-.315a103.454,103.454,0,0,1-.464,29.519m-84.794-94.9c13.036,15.319,3.5,38.369-7.291,52.1-10.108,12.855-25.177,21.421-34.375,34.811-9.992,14.558-14.37,35.3-6.538,51.772,6.946,14.61,21.728,24.608,37.489,26.674a56.286,56.286,0,0,0,30.763-4.606c32.473-15.044,51.579-56.079,48.152-90.806-3.117-31.564-22.213-57.984-51.886-69.758-.831-.328-1.65-.639-2.464-.932a116.408,116.408,0,0,0-18.126-4.43c-.617-.084-1.217-.158-1.789-.224a31.184,31.184,0,0,1,6.066,5.393" transform="translate(-190.542 -312.129)" fill="#fff"/><g transform="translate(0 0)" clip-path="url(#b)"><g transform="translate(-1539.713 -2114.85)"><rect width="3190.874" height="2406.491" fill="#fff"/></g></g></g></g></svg>