<svg xmlns="http://www.w3.org/2000/svg" xmlns:xlink="http://www.w3.org/1999/xlink" width="441.765" height="79.763" viewBox="0 0 441.765 79.763"><defs><clipPath id="a"><path d="M159.447,335.348c-5.794,11.014-5.685,25.3-.165,36.379a40.3,40.3,0,0,0,14.732,16.212,46.984,46.984,0,0,1-9.42-21.814c-2.061-13.871,2.528-30.389,15.247-37.571,2.823-1.592,6.829-3.382,10.031-1.842,2.94,1.413,3.12,4.761,1.9,7.445a17.964,17.964,0,0,0,6.251-7.247c2.83-6.215-.819-10.949-7.442-11.5-.525-.045-1.06-.066-1.6-.066-10.482,0-23.321,8.2-29.533,20.008" transform="translate(-155.121 -315.34)" fill="#fffcfc"/></clipPath><clipPath id="b"><path d="M250.368,346.62c-1.874,11.558-10.448,27.133-25.712,29.978-.878.162-17.086,2.821-26.1-8.883-5.394-7.006-5.065-15.08-4.867-17.574a33.455,33.455,0,0,0-2.851,18.446c1.18,8.562,5.223,16.966,13.34,20.835,7.924,3.775,17.612,2.895,25.527-.427l.047-.021A40.543,40.543,0,0,0,245.9,375.891c.059-.08.115-.158.168-.23a40.493,40.493,0,0,0,6.468-14.088c.015-.065.031-.13.047-.193a40.892,40.892,0,0,0,.829-13.763c-.006-.051-.011-.1-.017-.152a40.62,40.62,0,0,0-2.824-10.889l-.043-.108a35.578,35.578,0,0,1-.16,10.151m-29.161-32.636c4.483,5.268,1.2,13.2-2.507,17.919-3.476,4.421-8.658,7.367-11.821,11.972-3.436,5.006-4.942,12.139-2.249,17.8a16.817,16.817,0,0,0,12.893,9.173,19.356,19.356,0,0,0,10.579-1.584c11.167-5.173,17.738-19.286,16.56-31.228a28.3,28.3,0,0,0-17.844-23.99c-.286-.113-.568-.22-.847-.321a40.037,40.037,0,0,0-6.234-1.523c-.212-.029-.419-.054-.615-.077a10.724,10.724,0,0,1,2.086,1.855" transform="translate(-190.542 -312.129)" fill="#fffcfc"/></clipPath></defs><g transform="translate(-155.121 -312.129)"><g transform="translate(155.121 313.725)"><path d="M159.447,335.348c-5.794,11.014-5.685,25.3-.165,36.379a40.3,40.3,0,0,0,14.732,16.212,46.984,46.984,0,0,1-9.42-21.814c-2.061-13.871,2.528-30.389,15.247-37.571,2.823-1.592,6.829-3.382,10.031-1.842,2.94,1.413,3.12,4.761,1.9,7.445a17.964,17.964,0,0,0,6.251-7.247c2.83-6.215-.819-10.949-7.442-11.5-.525-.045-1.06-.066-1.6-.066-10.482,0-23.321,8.2-29.533,20.008" transform="translate(-155.121 -315.34)" fill="#fffcfc"/><g transform="translate(0 0)" clip-path="url(#a)"><g transform="translate(-511.906 -728.897)"><rect width="1097.348" height="827.597" transform="translate(0 0)" fill="#fffcfc"/></g></g></g><g transform="translate(172.726 312.129)"><path d="M250.368,346.62c-1.874,11.558-10.448,27.133-25.712,29.978-.878.162-17.086,2.821-26.1-8.883-5.394-7.006-5.065-15.08-4.867-17.574a33.455,33.455,0,0,0-2.851,18.446c1.18,8.562,5.223,16.966,13.34,20.835,7.924,3.775,17.612,2.895,25.527-.427l.047-.021A40.543,40.543,0,0,0,245.9,375.891c.059-.08.115-.158.168-.23a40.493,40.493,0,0,0,6.468-14.088c.015-.065.031-.13.047-.193a40.892,40.892,0,0,0,.829-13.763c-.006-.051-.011-.1-.017-.152a40.62,40.62,0,0,0-2.824-10.889l-.043-.108a35.578,35.578,0,0,1-.16,10.151m-29.161-32.636c4.483,5.268,1.2,13.2-2.507,17.919-3.476,4.421-8.658,7.367-11.821,11.972-3.436,5.006-4.942,12.139-2.249,17.8a16.817,16.817,0,0,0,12.893,9.173,19.356,19.356,0,0,0,10.579-1.584c11.167-5.173,17.738-19.286,16.56-31.228a28.3,28.3,0,0,0-17.844-23.99c-.286-.113-.568-.22-.847-.321a40.037,40.037,0,0,0-6.234-1.523c-.212-.029-.419-.054-.615-.077a10.724,10.724,0,0,1,2.086,1.855" transform="translate(-190.542 -312.129)" fill="#fffcfc"/><g transform="translate(0 0)" clip-path="url(#b)"><g transform="translate(-529.51 -727.301)"><rect width="1097.348" height="827.597" fill="#fffcfc"/></g></g></g><g transform="translate(257.861 328.119)"><path d="M392.43,400.46,382.965,385.6a12.151,12.151,0,0,1-1.336.054h-5.958V400.46h-5.4V360.21h10.744a17.789,17.789,0,0,1,7.349,1.448,11.558,11.558,0,0,1,5.067,4.258,12.1,12.1,0,0,1,1.834,6.765,14.466,14.466,0,0,1-1.639,6.847,10.692,10.692,0,0,1-5.04,4.733l10.134,16.2Zm-4.65-22.324A7.894,7.894,0,0,0,389.7,372.9a8.2,8.2,0,0,0-.808-3.506,6.887,6.887,0,0,0-2.56-2.867,7.977,7.977,0,0,0-4.427-1.142h-6.237v15.03h5.848q4.343,0,6.261-2.281" transform="translate(-370.273 -358.539)" fill="#fffcfc"/><path d="M465.494,388.883H450.016L445.73,399.46h-5.342l17.591-41.92h.333L475.9,399.46h-6.236Zm-1.838-4.675-5.732-14.7-5.958,14.7Z" transform="translate(-396.519 -357.54)" fill="#fffcfc"/><path d="M532.3,378.416l.669-1.057,16.478-17.147H556.4l-16.643,17.257,17.591,22.991h-6.846l-14.7-19.541-3.4,3.286.055,16.255h-5.511V360.211h5.511v16.2Z" transform="translate(-428.925 -358.54)" fill="#fffcfc"/><path d="M611.136,391.025a9.4,9.4,0,0,0,3.481,3.4,9.674,9.674,0,0,0,4.87,1.253,10.374,10.374,0,0,0,5.039-1.224,9.046,9.046,0,0,0,3.536-3.4,9.36,9.36,0,0,0,1.279-4.843v-26h5.289v26.164a14.4,14.4,0,0,1-2,7.6,13.652,13.652,0,0,1-5.456,5.12,17.075,17.075,0,0,1-15.307,0,13.475,13.475,0,0,1-5.429-5.12,14.558,14.558,0,0,1-1.976-7.6V360.211h5.4v26a9.2,9.2,0,0,0,1.279,4.817" transform="translate(-457.935 -358.54)" fill="#fffcfc"/><path d="M718.316,402.34l-9.408-24.049-10.3,24.161-16.033-41.975h6.291l10.409,29.283,6.958-18.258-4.286-11.025H707.3l11.188,28.67,9.909-28.67h5.791Z" transform="translate(-487.179 -358.639)" fill="#fffcfc"/><path d="M821.831,360.211v5.177H801.066v12.247H819.6v5.179H801.066v12.412h21.545v5.234H795.667V360.211Z" transform="translate(-529.512 -358.54)" fill="#fffcfc"/><path d="M894.942,383.4a8.885,8.885,0,0,1,2.005,5.762,10.468,10.468,0,0,1-1.865,6.374,10.927,10.927,0,0,1-4.9,3.73,17.927,17.927,0,0,1-6.651,1.2H871.563V360.21h10.409q6.179,0,9.575,2.533t3.4,7.6a10.548,10.548,0,0,1-1.421,5.539,9.75,9.75,0,0,1-4.034,3.7,12.774,12.774,0,0,1,5.455,3.813M876.961,377.8h6.123a5.972,5.972,0,0,0,4.705-1.781,6.61,6.61,0,0,0,1.586-4.565,5.471,5.471,0,0,0-1.893-4.565,8.3,8.3,0,0,0-5.286-1.5h-5.234Zm12.137,16.06a5.3,5.3,0,0,0,2.281-4.648,5.079,5.079,0,0,0-2.478-4.675,11.321,11.321,0,0,0-5.985-1.5h-5.956V395.45h6.348a9.908,9.908,0,0,0,5.789-1.588" transform="translate(-557.922 -358.539)" fill="#fffcfc"/></g></g></svg>