<?xml version="1.0" encoding="utf-8"?>
<!-- Generator: Adobe Illustrator 25.4.1, SVG Export Plug-In . SVG Version: 6.00 Build 0)  -->
<svg version="1.1" id="レイヤー_1" xmlns="http://www.w3.org/2000/svg" xmlns:xlink="http://www.w3.org/1999/xlink" x="0px"
	 y="0px" viewBox="0 0 340.1 82.2" style="enable-background:new 0 0 340.1 82.2;" xml:space="preserve">
<style type="text/css">
	.st0{clip-path:url(#SVGID_00000113341589122120333670000008685026213949894846_);}
	.st1{clip-path:url(#SVGID_00000008113297079980510320000015575581339352946877_);}
	.st2{fill:#FFFFFF;}
</style>
<g>
	<defs>
		<rect id="SVGID_1_" x="-28.4" y="-28.8" width="396.9" height="139.9"/>
	</defs>
	<clipPath id="SVGID_00000095308027816340997570000018342523105147116684_">
		<use xlink:href="#SVGID_1_"  style="overflow:visible;"/>
	</clipPath>
	<g style="clip-path:url(#SVGID_00000095308027816340997570000018342523105147116684_);">
		<g>
			<defs>
				<circle id="SVGID_00000149373918899062134380000010557066992486088098_" cx="41.5" cy="41.2" r="41.6"/>
			</defs>
			<clipPath id="SVGID_00000142868092627316107340000010126805270367667605_">
				<use xlink:href="#SVGID_00000149373918899062134380000010557066992486088098_"  style="overflow:visible;"/>
			</clipPath>
			<g style="clip-path:url(#SVGID_00000142868092627316107340000010126805270367667605_);">
				<path class="st2" d="M25.5,15.2c2.9-1.6,7-3.5,10.3-1.9c3,1.5,3.2,4.9,2,7.7c2.8-1.9,5-4.4,6.4-7.5c2.9-6.4-0.9-11.3-7.7-11.9
					C25.5,0.8,11.2,9.5,4.5,22.3c-6,11.3-5.9,26.1-0.2,37.5C7.1,65.2,11,70,15.8,73.8c1.2,0.9,2.4,1.8,3.7,2.6
					c-5.1-6.5-8.4-14.3-9.7-22.5C7.6,39.7,12.4,22.7,25.5,15.2z"/>
				<path class="st2" d="M47.1,20.4c3.8-4.9,7.2-13,2.6-18.5c-0.6-0.7-1.3-1.4-2.1-1.9c2.7,0.3,5.4,1,7.9,2
					C65.8,6.1,73,15.6,73.9,26.7c1.2,12.3-5.6,26.8-17.1,32.2c-3.4,1.6-7.2,2.1-10.9,1.6c-5.7-0.7-10.7-4.3-13.3-9.4
					c-2.8-5.8-1.2-13.2,2.3-18.3C38.2,28,43.6,24.9,47.1,20.4z M82.9,36.4c-0.5-3.9-1.5-7.7-3-11.3c0.5,3.5,0.4,7-0.2,10.5
					c-1.9,11.9-10.7,28-26.4,30.9c-0.9,0.2-17.6,2.9-26.9-9.1c-5.5-7.2-5.2-15.5-5-18.1c-2.8,5.9-3.8,12.5-2.9,19
					c1.2,8.8,5.4,17.5,13.7,21.5c8.2,3.9,18.1,3,26.3-0.4c6.8-2.9,12.6-7.7,16.8-13.7C81.4,57,84.1,46.7,82.9,36.4L82.9,36.4z"/>
			</g>
		</g>
		<path class="st2" d="M121.5,40.3c0.9-1.7,1.3-3.6,1.3-5.5c0-1.9-0.5-3.9-1.5-5.5c-1-1.5-2.5-2.8-4.1-3.5c-1.9-0.8-3.9-1.2-5.9-1.2
			h-8.8v32.2h5.2V45.3h4.9l7.3,11.5h6.1l-8-12.9C119.4,43.1,120.7,41.8,121.5,40.3z M115.1,30.4c0.8,0.5,1.4,1.2,1.8,2
			c0.4,0.8,0.6,1.6,0.6,2.5c0,1.4-0.5,2.7-1.4,3.7c-0.9,1-2.4,1.6-4.4,1.6h-4V29.6h4.3C113,29.5,114.1,29.8,115.1,30.4z"/>
		<polygon class="st2" points="145.9,23.2 131.8,56.7 137.1,56.7 146.1,34.4 154.9,56.7 160.9,56.7 146.8,23.2 		"/>
		<polygon class="st2" points="194.2,24.5 187.4,24.5 175,37.4 175,24.5 169.7,24.5 169.7,56.7 175,56.7 174.9,43.8 177,41.9 
			188.2,56.7 194.8,56.7 180.8,38.5 		"/>
		<path class="st2" d="M222.2,45.2c0,1.2-0.3,2.4-0.9,3.5c-0.6,1-1.5,1.9-2.5,2.4c-1.1,0.6-2.4,0.9-3.6,0.9c-1.2,0-2.4-0.3-3.5-0.9
			c-1-0.6-1.9-1.4-2.5-2.4c-0.6-1-0.9-2.2-0.9-3.5V24.5h-5.2v20.8c0,2.2,0.5,4.3,1.6,6.2c1,1.8,2.6,3.2,4.4,4.2
			c3.9,1.9,8.5,1.9,12.3,0c1.8-0.9,3.4-2.4,4.4-4.2c1.1-1.9,1.7-4,1.6-6.2V24.5h-5.2V45.2z"/>
		<polygon class="st2" points="264.7,45.9 256.5,24.7 251.2,24.7 254.7,33.7 249.9,46.3 242.2,24.7 236.2,24.7 249.4,59.1 
			257.3,40.4 264.6,59 277.7,24.7 272.1,24.7 		"/>
		<polygon class="st2" points="292.1,43.1 306.5,43.1 306.5,38 292.1,38 292.1,29.6 308.2,29.6 308.2,24.5 286.9,24.5 286.9,56.7 
			308.8,56.7 308.8,51.6 292.1,51.6 		"/>
		<path class="st2" d="M338.4,42.7c-0.9-1.1-2.1-2.1-3.5-2.7c1-0.7,1.8-1.5,2.4-2.5c0.8-1.4,1.2-3,1.2-4.6c0.2-2.4-0.9-4.8-2.8-6.3
			c-1.8-1.4-4.4-2.1-7.7-2.1h-8.6v32.2h9.8c1.8,0,3.6-0.3,5.3-1c1.6-0.6,3-1.7,4-3.1c1.1-1.5,1.6-3.4,1.5-5.2
			C340.1,45.7,339.5,44,338.4,42.7z M331.9,30.7c0.9,0.8,1.4,1.9,1.3,3.1c0.1,1.2-0.3,2.3-1.1,3.2c-0.8,0.9-2,1.3-3.2,1.2h-4.2v-8.6
			h3.5C329.5,29.5,330.8,29.9,331.9,30.7L331.9,30.7z M324.6,43.3h4.1c1.5,0,3,0.3,4.4,1.1c1.1,0.7,1.8,1.9,1.7,3.2
			c0.1,1.3-0.5,2.5-1.5,3.2c-1.2,0.8-2.7,1.2-4.2,1.1h-4.4V43.3z"/>
	</g>
</g>
</svg>
