<svg xmlns="http://www.w3.org/2000/svg" xmlns:xlink="http://www.w3.org/1999/xlink" width="364.139" height="89.077" viewBox="0 0 364.139 89.077"><defs><clipPath id="a"><circle cx="44.539" cy="44.539" r="44.539" fill="#fff"/></clipPath></defs><g transform="translate(0.1 0.4)"><g transform="translate(-0.1 -0.4)"><g clip-path="url(#a)"><path d="M27.3,16.164c3.1-1.713,7.494-3.747,11.028-2.034,3.212,1.606,3.426,5.246,2.141,8.244a19.185,19.185,0,0,0,6.852-8.03c3.1-6.852-.964-12.1-8.244-12.741C27.3.747,11.99,10.062,4.817,23.766-1.607,35.864-1.5,51.71,4.6,63.915A46.256,46.256,0,0,0,16.915,78.9c1.285.964,2.57,1.927,3.961,2.784A52.306,52.306,0,0,1,10.491,57.6C8.136,42.4,13.275,24.194,27.3,16.164Z" transform="translate(0.108 0.538)" fill="#fff"/><path d="M49.143,21.841c4.068-5.246,7.709-13.918,2.784-19.807A10.189,10.189,0,0,0,49.678,0a32.716,32.716,0,0,1,8.458,2.141,31.24,31.24,0,0,1,19.7,26.445c1.285,13.169-6,28.693-18.308,34.475a20.845,20.845,0,0,1-11.67,1.713A18.668,18.668,0,0,1,33.619,54.71c-3-6.21-1.285-14.132,2.462-19.593C39.614,29.978,45.4,26.659,49.143,21.841Zm38.329,17.13a46.958,46.958,0,0,0-3.212-12.1,36.01,36.01,0,0,1-.214,11.242C82.012,50.855,72.59,68.093,55.781,71.2c-.964.214-18.843,3.1-28.8-9.743-5.889-7.709-5.567-16.595-5.353-19.379a35.926,35.926,0,0,0-3.1,20.342C19.807,71.84,24.3,81.155,33.19,85.437c8.779,4.175,19.379,3.212,28.158-.428A42.267,42.267,0,0,0,79.335,70.341a45.284,45.284,0,0,0,8.137-31.37Z" transform="translate(1.391 0.428)" fill="#fff"/></g><path d="M122.842,41.409a12.55,12.55,0,0,0,1.392-5.889,11.322,11.322,0,0,0-1.606-5.889,10.591,10.591,0,0,0-4.39-3.747,16.254,16.254,0,0,0-6.317-1.285H102.5V59.075h5.567V46.762h5.246l7.816,12.312h6.531l-8.565-13.811A9.982,9.982,0,0,0,122.842,41.409Zm-6.852-10.6a5.288,5.288,0,0,1,1.927,2.141,5.8,5.8,0,0,1,.642,2.677,5.877,5.877,0,0,1-1.5,3.961A6.143,6.143,0,0,1,112.35,41.3h-4.283V29.953h4.6A5.524,5.524,0,0,1,115.99,30.81Z" transform="translate(7.348 2.166)" fill="#fff"/><path d="M146.9,23.2,131.8,59.067h5.674l9.636-23.875,9.422,23.875h6.424L147.86,23.2Z" transform="translate(9.418 2.067)" fill="#fff"/><path d="M195.931,24.5h-7.28L175.374,38.311V24.5H169.7V58.975h5.674l-.107-13.811,2.248-2.034,11.991,15.845h7.066L181.584,39.489Z" transform="translate(12.095 2.159)" fill="#fff"/><path d="M223.549,46.662a7.812,7.812,0,0,1-.964,3.747,6.848,6.848,0,0,1-2.677,2.57,8.226,8.226,0,0,1-3.854.964,7.812,7.812,0,0,1-3.747-.964,7.692,7.692,0,0,1-2.677-2.57,7.233,7.233,0,0,1-.964-3.747V24.5H203.1V46.769a13.063,13.063,0,0,0,1.713,6.638,11.9,11.9,0,0,0,4.711,4.5,14.971,14.971,0,0,0,13.169,0,11.214,11.214,0,0,0,4.711-4.5,12.078,12.078,0,0,0,1.713-6.638V24.5h-5.567V46.662Z" transform="translate(14.454 2.159)" fill="#fff"/><path d="M266.713,47.4l-8.779-22.7H252.26l3.747,9.636-5.139,13.49L242.624,24.7H236.2l14.132,36.83,8.458-20.021,7.816,19.914L280.632,24.7h-6Z" transform="translate(16.793 2.173)" fill="#fff"/><path d="M292.467,44.414h15.417v-5.46H292.467V29.96H309.7V24.5H286.9V58.975h23.447v-5.46h-17.88Z" transform="translate(20.374 2.159)" fill="#fff"/><path d="M339.742,43.986a10.082,10.082,0,0,0-3.747-2.891,8.734,8.734,0,0,0,2.57-2.677,9.947,9.947,0,0,0,1.285-4.925,7.883,7.883,0,0,0-3-6.745c-1.927-1.5-4.711-2.248-8.244-2.248H319.4V58.975h10.492a14.838,14.838,0,0,0,5.674-1.071,9.341,9.341,0,0,0,4.283-3.319,8.7,8.7,0,0,0,1.606-5.567A7.208,7.208,0,0,0,339.742,43.986Zm-6.959-12.848a3.961,3.961,0,0,1,1.392,3.319A4.5,4.5,0,0,1,333,37.883a4.087,4.087,0,0,1-3.426,1.285h-4.5V29.96h3.747a5.966,5.966,0,0,1,3.961,1.178Zm-7.816,13.49h4.39a9.33,9.33,0,0,1,4.711,1.178,3.763,3.763,0,0,1,1.82,3.426,3.814,3.814,0,0,1-1.606,3.426,7.3,7.3,0,0,1-4.5,1.178h-4.711V44.628Z" transform="translate(22.67 2.159)" fill="#fff"/></g></g></svg>